<svg width="100%" height="100%" viewBox="0 0 267 44" fill="none" xmlns="http://www.w3.org/2000/svg">
<g clip-path="url(#clip0_4076_866)">
<path d="M19.2304 43.6304C18.0305 42.2996 15.7254 40.8262 15.5043 38.9409C15.3938 38.0221 15.5043 37.0398 15.9938 36.2318H4.79964L4.65754 36.0893V31.1622C4.65754 29.7997 6.26798 28.5482 7.37319 28.057C7.46792 28.0095 7.54686 28.1204 7.51528 27.8986L0.110419 20.5001C-0.0474672 20.2308 -0.0474672 19.6763 0.110419 19.407C1.49982 18.2663 2.90501 15.9533 4.79964 15.7315C5.73117 15.6206 6.69427 15.7315 7.4995 16.2067V5.006L7.64159 4.86342H12.5676C13.3887 4.86342 14.7781 5.95656 15.2201 6.65364C15.4254 6.98633 15.5201 7.39824 15.678 7.66757C15.8517 7.96858 16.0727 7.4933 16.1674 7.3824C18.5831 4.95847 21.0146 2.56624 23.3986 0.126469C23.6039 -0.0161147 23.9039 -0.0161147 24.0933 0.126469C25.2617 1.59983 27.7405 3.04152 27.9615 5.02185C28.0721 5.95656 27.9615 6.90712 27.4721 7.73094H38.6504L38.7925 7.87352V12.8006C38.7925 14.1789 37.1979 15.3988 36.0769 15.9057C35.9822 15.9533 35.9032 15.8424 35.9348 16.0642C36.6927 17.0939 43.7817 23.4944 43.7186 24.0489C43.7186 24.1281 43.6712 24.1914 43.6239 24.2548C42.1397 25.443 40.6398 27.9937 38.6347 28.2313C37.64 28.3422 36.8505 28.1838 35.9348 27.8511V38.9409L35.7927 39.0835H30.8667C29.493 39.0835 28.2773 37.4834 27.7721 36.3586C27.7247 36.2635 27.8352 36.1843 27.6142 36.216L20.1778 43.6145H19.1989L19.2304 43.6304ZM23.7302 2.69298L20.9988 5.49712C20.9988 5.68724 22.6882 7.30319 22.9723 7.46161C24.9617 8.53891 26.9353 6.3051 25.6248 4.51488C25.4669 4.29308 23.8407 2.67713 23.7144 2.69298H23.7302ZM9.47307 10.8678H12.3782C12.3782 10.8678 12.8203 10.6618 12.915 10.6143C14.2412 9.88554 14.2254 8.00026 13.0097 7.17645C12.915 7.11307 12.3466 6.82791 12.2834 6.82791H9.47307V10.8678ZM17.5095 11.8659H20.6672L20.8093 11.7233V8.17453C20.8093 8.09532 19.7041 7.01802 19.6252 6.98633C19.5462 6.95465 19.4988 6.92296 19.4357 6.98633L13.7676 12.4679L15.1412 13.9571L15.3307 14.0363C15.5833 13.9888 17.2411 11.9451 17.5095 11.8659ZM22.6724 9.60037V11.7233L22.8145 11.8659H25.9722C26.1301 11.8659 27.9458 14.0363 28.23 14.0363C28.5931 13.7987 30.8351 11.6124 30.8351 11.4223V9.83801C30.8351 9.72711 30.5982 9.69543 30.4877 9.67958C28.4352 9.44194 25.7354 9.7588 23.5881 9.67958C23.2723 9.67958 22.9723 9.52116 22.6566 9.58453L22.6724 9.60037ZM36.8505 9.69543H32.8087V12.6105C32.8087 12.6105 33.0139 13.0541 33.0613 13.1491C33.7876 14.4799 35.6664 14.4641 36.5032 13.2442C36.5663 13.1491 36.8505 12.5788 36.8505 12.5154V9.71127V9.69543ZM9.37834 21.0388H11.494L11.6361 20.8962V17.7435C11.6361 17.5851 13.8465 15.7315 13.7992 15.4938C13.436 15.2245 11.3835 12.864 11.194 12.864H9.61517C9.50465 12.864 9.47307 13.1016 9.45728 13.1966C9.22045 15.2562 9.53623 17.9494 9.45728 20.104C9.45728 20.4209 9.2994 20.7219 9.36255 21.0388H9.37834ZM18.4094 13.9571L13.736 18.6465V25.3163L18.4094 30.0057H25.0722L29.7457 25.3163V18.6465L25.0722 13.9571H18.4094ZM31.8298 17.7276V20.8803L31.9719 21.0229H35.5243C35.6032 21.0229 36.6769 19.9139 36.7084 19.8347C36.74 19.7555 36.7716 19.708 36.7084 19.6446L31.2298 13.9729L29.7457 15.3512L29.6667 15.5414C29.7141 15.779 31.7508 17.4583 31.8298 17.7276ZM5.11541 17.7118C4.18388 17.8702 3.12605 19.3119 2.4945 19.9931L5.28909 22.8131C5.88906 22.0685 7.31003 21.1497 7.48371 20.1833C7.75211 18.6624 6.6627 17.4583 5.11541 17.7118ZM38.1136 21.2447C38.0031 21.2764 36.6137 22.6705 36.4716 22.8607C35.2085 24.4925 36.3927 26.5995 38.461 26.2351C39.2978 26.0926 40.3083 24.5875 40.9872 24.033L38.382 21.3239C38.3031 21.2447 38.2084 21.213 38.0978 21.2447H38.1136ZM11.6361 26.2193V23.0666L11.494 22.924H8.0521C7.91 22.924 6.71006 24.1122 6.72585 24.239C8.36787 26.1084 10.4993 27.7402 12.0308 29.6888C12.1887 29.8948 12.0466 30.2116 12.4887 29.9265C12.6466 29.8156 13.8149 28.5957 13.8149 28.4848C13.6413 27.962 11.7466 26.552 11.6519 26.2193H11.6361ZM34.1033 22.9082H31.9876L31.8456 23.0508V26.2035C31.8456 26.3619 29.6825 28.1838 29.6825 28.469C29.9193 28.8333 32.0982 31.083 32.3034 31.083H34.0244L34.1191 22.8923L34.1033 22.9082ZM10.6572 34.2515V31.3365C10.6572 31.1305 10.1836 30.4651 10.0099 30.3225C9.06257 29.5146 7.67317 29.6888 6.97847 30.7028C6.91532 30.7978 6.63112 31.3682 6.63112 31.4315V34.2357H10.673L10.6572 34.2515ZM20.8093 34.3466V32.2237L20.6672 32.0811H17.5095C17.3516 32.0811 15.5043 29.8789 15.2517 29.9106C14.9833 30.275 12.6308 32.3346 12.6308 32.5247V34.1089C12.6308 34.2198 12.8676 34.2515 12.9781 34.2674C15.0307 34.505 17.7305 34.1881 19.8778 34.2674C20.1935 34.2674 20.4935 34.4258 20.8093 34.3624V34.3466ZM25.9722 32.0811H22.8145L22.6724 32.2237V35.7724C22.6724 35.8516 23.7776 36.9289 23.8565 36.9606C23.9355 36.9923 23.9828 37.024 24.046 36.9606C25.7038 35.4714 27.2037 33.5544 28.8773 32.1128C29.1299 31.9068 29.4457 31.6216 29.7615 31.5741C29.8088 31.4315 29.7141 31.4157 29.6667 31.3206C29.5404 31.1464 28.2615 29.879 28.151 29.8948C27.7089 30.1483 26.2564 31.9702 25.9722 32.0652V32.0811ZM34.0086 33.0633H31.1035C30.8982 33.0633 30.2351 33.5386 30.0772 33.7129C29.272 34.6634 29.4457 36.0417 30.4562 36.7547C30.5509 36.818 31.1193 37.1032 31.1824 37.1032H33.9928V33.0633H34.0086ZM19.0094 36.2477C17.5568 36.5012 17.0042 38.2755 17.8568 39.4321C18.0147 39.6539 19.6409 41.2698 19.7673 41.254L22.4987 38.4498C21.5356 37.4042 20.6672 35.9784 19.0252 36.2477H19.0094Z" fill="white"/>
<path d="M266.544 22.8128V30.5123C266.149 31.859 265.786 33.1422 264.949 34.2987C261.602 38.9565 253.028 38.8456 249.823 34.0928C247.534 30.7183 247.487 23.3673 249.429 19.8344C252.744 13.8142 263.465 14.2103 265.928 20.8325L266.544 22.8287V22.8128ZM256.976 19.977C254.149 20.2463 253.218 22.6069 253.06 25.1258C252.871 28.025 252.934 32.8729 256.755 33.269C261.981 33.7918 262.107 28.5954 261.823 24.7456C261.618 21.9098 260.07 19.6918 256.976 19.9928V19.977Z" fill="white"/>
<path d="M22.483 43.6306L27.267 38.9094C27.4248 38.8778 27.8669 39.4639 28.0406 39.5907C28.5932 40.0184 29.6826 40.6838 30.4089 40.6838H33.5192C31.8614 41.9354 29.8563 42.6641 27.8985 43.2979L26.3196 43.6464H22.483V43.6306Z" fill="white"/>
<path d="M215.941 7.42991H228.682C232.061 7.6517 235.187 9.15675 236.214 12.5946C237.256 16.0641 236.403 19.7872 233.166 21.6724C236.814 23.4785 237.792 27.756 236.766 31.479C234.508 39.6063 222.446 36.6121 216.273 37.1982L215.878 36.9923L215.941 7.41406V7.42991ZM221.088 11.9609C221.088 11.9609 220.946 12.0876 220.946 12.1035V19.5971C220.946 19.5971 221.104 19.7713 221.151 19.7872C223.156 19.7713 225.398 19.9931 227.404 19.8347C230.167 19.6287 231.998 17.7435 231.366 14.8759C231.066 13.4818 229.567 11.9451 228.098 11.9451H221.104L221.088 11.9609ZM221.088 24.3974C221.088 24.3974 220.946 24.5241 220.946 24.54V32.4296C220.946 32.4296 221.104 32.6039 221.151 32.6197C223.33 32.588 225.73 32.8257 227.893 32.6672C230.924 32.4454 232.598 30.1324 231.809 27.1698C231.461 25.8549 229.867 24.3815 228.477 24.3815H221.088V24.3974Z" fill="white"/>
<path d="M73.796 28.342V7.57227L73.9381 7.42969H78.2642C78.2642 7.42969 78.4379 7.65148 78.4695 7.71485V36.9287C78.4379 37.0079 78.3905 37.1188 78.3116 37.1663C78.1221 37.2772 74.3644 37.2772 73.9223 37.2139C73.7013 37.1822 73.5276 37.0871 73.3855 36.9287L61.2599 16.46L60.9757 16.3016V36.9604C60.9757 36.9604 60.8178 37.1346 60.7704 37.1505C60.581 37.2297 57.0759 37.2614 56.6812 37.198C56.4285 37.1663 56.3022 37.1188 56.2391 36.8495V7.96834L56.3338 7.42969H61.0072C61.0072 7.42969 61.2914 7.6198 61.3546 7.68317L73.3855 28.0885L73.7645 28.3578L73.796 28.342Z" fill="white"/>
<path d="M135.545 35.2333C132.293 39.2574 123.735 38.4335 122.583 32.8728C121.383 27.0427 125.425 24.7138 130.556 24.4762C131.977 24.4128 133.73 24.6504 135.103 24.4762C135.198 24.4762 135.451 24.4286 135.451 24.3177V22.6384C135.451 21.6403 134.63 20.4997 133.698 20.1511C131.882 19.4541 128.756 19.6283 127.004 20.4997C126.325 20.8482 125.756 21.7196 125.22 20.9433C124.904 20.4997 123.941 18.7887 123.735 18.2817C123.578 17.8856 123.562 17.8539 123.878 17.5529C124.967 16.4915 128.188 15.6835 129.688 15.5726C134.582 15.2399 139.682 15.9528 140.077 21.8305V36.8334C140.013 37.1028 139.887 37.1503 139.635 37.182C139.24 37.2295 135.924 37.2137 135.735 37.1344C135.687 37.1186 135.53 36.9602 135.53 36.9443V35.2175L135.545 35.2333ZM130.477 28.2309C128.377 28.4368 126.641 29.4508 127.24 31.8588C127.84 34.2669 132.672 33.9818 134.251 32.8094C134.803 32.3975 135.435 31.336 135.435 30.639V28.3735L135.293 28.2309H130.461H130.477Z" fill="white"/>
<path d="M171.97 15.6366C177.985 15.0505 181.932 18.1556 182.627 24.1441C183.369 30.5129 181.648 37.1985 174.212 37.7054C168.307 38.1015 164.644 34.7429 164.012 28.9761C163.381 23.2094 164.928 16.3179 171.97 15.6366ZM173.059 19.9775C169.996 20.1676 169.096 22.6232 168.938 25.3165C168.765 28.2791 168.891 32.9051 172.743 33.2536C177.78 33.7131 177.969 28.6276 177.717 24.9204C177.527 22.1163 176.185 19.7716 173.075 19.9617L173.059 19.9775Z" fill="white"/>
<path d="M185.879 16.096H190.458C190.458 16.096 190.711 16.3177 190.711 16.3494V17.9812C191.848 16.6346 193.521 15.7474 195.289 15.6207C200.01 15.2721 203.168 17.9971 203.61 22.6707V36.9607C203.515 37.1825 203.373 37.1984 203.168 37.23C202.426 37.3251 199.868 37.3251 199.126 37.23C198.952 37.2142 198.826 37.1984 198.731 37.0241L198.684 24.049C198.431 18.6783 191.105 18.4882 190.695 24.049L190.648 37.0241C190.553 37.1825 190.427 37.1984 190.253 37.23C188.99 37.3885 187.348 37.1191 186.037 37.1984L185.816 37.0241L185.769 16.6504L185.879 16.1118V16.096Z" fill="white"/>
<path d="M95.3633 16.0959H99.942C99.942 16.0959 100.116 16.2543 100.131 16.3019L100.163 36.9448C100.068 37.2142 99.8788 37.1983 99.642 37.2142C98.8052 37.2934 96.5 37.3251 95.6948 37.2142C95.5685 37.1983 95.2527 37.0874 95.2527 36.9607V35.2338C94.2107 36.4854 92.8687 37.3251 91.2424 37.5785C86.269 38.3865 82.7639 35.2497 82.4482 30.3385C82.164 25.8391 82.6692 21.0547 82.4482 16.5237C82.4166 16.3969 82.6218 16.0801 82.7008 16.0801H87.2321L87.3742 16.2227V29.2453C87.3742 30.7187 88.4005 32.6198 89.853 33.0792C92.7739 33.9823 95.0317 32.1762 95.2527 29.2612C95.5685 25.2054 94.9212 20.6903 95.2527 16.6187C95.2527 16.4286 95.3159 16.2543 95.3633 16.0801V16.0959Z" fill="white"/>
<path d="M106.936 16.0957L111.862 30.1957L116.788 16.0957H121.572L121.541 16.6185C118.936 23.0031 117.041 29.9263 114.357 36.2475C114.136 36.7545 114.168 37.1506 113.552 37.2139C113.062 37.2615 110.047 37.2615 109.778 37.1347C109.684 37.0872 109.62 37.0238 109.573 36.9446L102.137 16.7611L102.073 16.0957H106.952H106.936Z" fill="white"/>
<path d="M149.345 16.0004C149.471 16.2064 151.997 16.0321 152.455 16.0955C152.818 16.143 152.85 16.3014 152.897 16.6341C152.96 17.2203 152.96 18.7254 152.897 19.2957C152.865 19.5175 152.692 19.9294 152.455 19.9294H149.345V31.7163C149.345 31.8589 149.629 32.4609 149.739 32.5718C150.466 33.3798 152.471 32.8253 152.771 33.158C152.85 33.2531 152.881 33.6333 152.897 33.7759C152.96 34.5363 152.976 36.0889 152.897 36.8335C152.865 37.1187 152.755 37.4038 152.455 37.4672C151.966 37.5623 150.466 37.5147 149.897 37.4672C147.403 37.3246 145.524 36.58 144.782 34.0135C144.687 33.665 144.434 32.6986 144.434 32.3817V19.8977H142.808C142.808 19.8977 142.366 19.6918 142.366 19.6442V16.1905L142.508 16.0479H144.182C144.182 16.0479 144.324 15.9212 144.434 15.9529V9.79011C144.434 9.61584 144.829 9.55247 144.971 9.53662C145.808 9.45741 148.113 9.42573 148.918 9.53662C149.045 9.55247 149.36 9.66336 149.36 9.79011V15.9529L149.345 16.0004Z" fill="white"/>
<path d="M156.181 16.0957H160.712L160.854 16.2383V36.9605C160.854 37.0872 160.539 37.1981 160.412 37.2139C159.986 37.2773 156.307 37.2773 156.118 37.1664C156.039 37.1189 155.96 36.9446 155.944 36.8496V16.3967L156.165 16.1115L156.181 16.0957Z" fill="white"/>
<path d="M240.145 37.1187V16.2539L240.287 16.1113H244.818L244.96 16.2539V36.9761C244.96 36.9761 244.803 37.1504 244.755 37.1662C244.518 37.2771 241.155 37.2613 240.666 37.2296C240.476 37.2296 240.303 37.1662 240.129 37.1187H240.145Z" fill="white"/>
<path d="M37.5454 37.4044V29.9108C38.8243 29.9425 40.0716 29.7999 41.0978 28.9761C41.903 28.3266 42.4872 27.376 43.3556 26.8057C42.4241 30.7663 40.4979 34.5844 37.5454 37.4044Z" fill="white"/>
<path d="M13.815 37.7998V39.3365C13.815 39.5425 14.1308 40.3663 14.2413 40.5881C14.7782 41.6813 16.0886 42.5526 16.878 43.4715C15.9149 43.4715 14.8097 43.0437 13.894 42.711C11.1152 41.6654 8.38376 39.9544 6.33124 37.7998H13.815Z" fill="white"/>
<path d="M37.1506 6.14628H29.6668V4.72044C29.6668 4.22932 29.13 3.12034 28.8142 2.70843C28.1669 1.85292 27.1564 1.23506 26.5565 0.332031C30.5194 1.28259 34.3245 3.19955 37.1506 6.14628Z" fill="white"/>
<path d="M40.4031 10.1865C41.9977 12.452 43.0398 15.3195 43.5292 18.0603C43.7345 19.2327 43.9082 20.4526 43.8134 21.6249L38.6506 16.4285C38.619 16.2701 39.2032 15.8265 39.3295 15.6522C39.8189 15.0344 40.4189 13.9888 40.4189 13.1966V10.1865H40.4031Z" fill="white"/>
<path d="M9.96265 3.27896C11.2257 2.34424 12.773 1.63132 14.2414 1.10851C16.4676 0.316382 18.8201 -0.206425 21.2041 0.0787427L16.2149 5.05333C15.7255 4.73648 15.3781 4.27704 14.8729 3.96019C14.4624 3.70671 13.4519 3.2948 12.9783 3.2948H9.97844L9.96265 3.27896Z" fill="white"/>
<path d="M0.0159912 22.7178L4.83152 27.5181C4.91046 27.7557 4.49996 27.8983 4.3105 28.136C3.74211 28.8172 3.07898 29.942 3.07898 30.845V33.7601C1.95799 32.2392 1.13698 30.3222 0.584382 28.5162C0.458073 28.1043 0.0159912 26.7418 0.0159912 26.425V22.7336V22.7178Z" fill="white"/>
<path d="M156.181 7.42991H160.712L160.854 7.57249V11.9134L160.712 12.056H156.181C156.181 12.056 156.007 11.8975 155.992 11.85C155.897 11.644 155.897 8.38046 155.944 7.95271C155.976 7.73092 156.023 7.55665 156.197 7.41406L156.181 7.42991Z" fill="white"/>
<path d="M240.303 7.42969H244.834L244.976 7.57227V11.9132L244.834 12.0557H240.303L240.161 11.9132V7.57227C240.161 7.57227 240.271 7.47722 240.303 7.42969Z" fill="white"/>
<path d="M5.93656 14.0365C4.65768 14.0049 3.41038 14.1474 2.38412 14.9713C1.5789 15.6208 0.994717 16.5714 0.126343 17.1417C1.07366 13.181 2.99987 9.3788 5.93656 6.54297V14.0365Z" fill="white"/>
<path d="M23.7461 26.346C23.5408 26.4727 22.704 26.0608 22.3883 26.0133C21.4567 25.8707 20.8568 26.14 19.9884 26.346C19.7989 26.2826 19.6568 25.6648 19.5147 25.443C19.0569 24.6825 18.299 24.1914 17.478 23.8904C17.3833 23.732 17.8569 22.3853 17.8569 21.9734C17.8569 21.3714 17.5096 20.7219 17.4622 20.1198C18.2832 19.7238 19.0253 19.3119 19.5147 18.5039C19.6568 18.2662 19.7989 17.6484 19.9884 17.6009C20.1937 17.5375 20.9357 17.9177 21.2831 17.9652C22.1672 18.092 22.783 17.8227 23.604 17.6009C24.0461 18.2821 24.2513 18.8366 24.8987 19.3752C25.1513 19.5812 26.146 20.0881 26.1933 20.1674C26.2565 20.2783 25.8618 21.2605 25.846 21.5932C25.767 22.4962 26.0354 22.7814 26.146 23.4785C26.2407 24.1122 25.5618 24.0963 25.0723 24.4607C24.8829 24.6033 24.4724 24.9994 24.3303 25.1895C24.1092 25.4746 23.8408 26.3301 23.7777 26.3618L23.7461 26.346Z" fill="white"/>
<path d="M25.9881 25.2054C26.8091 25.0153 27.1248 25.8867 27.6932 26.3144L26.067 27.9462C25.8302 27.6294 24.8987 26.9481 24.8671 26.5996C24.8197 26.1402 25.546 25.3005 25.9881 25.2054Z" fill="white"/>
<path d="M16.9412 25.2051C17.4938 25.0308 18.1096 25.5378 18.3938 25.9814C18.9621 26.9003 17.9043 27.328 17.4149 27.9459L15.7886 26.3141C16.0728 26.124 16.6728 25.2843 16.9412 25.2051Z" fill="white"/>
<path d="M26.067 16.001C26.2881 16.302 27.5985 17.3793 27.5985 17.6328C26.967 18.6467 26.0354 19.3438 25.1829 18.0764C24.4724 17.0149 25.4671 16.7456 26.067 16.0168V16.001Z" fill="white"/>
<path d="M17.3991 16.0002C18.1412 16.7607 19.1043 17.2676 18.0464 18.3132C16.9886 19.3589 16.5465 18.3132 15.7729 17.6162L17.3991 15.9844V16.0002Z" fill="white"/>
<path d="M14.494 23.1141V20.8486H16.1202C16.4044 20.8486 16.5781 21.8309 16.5781 22.0844C16.5781 22.322 16.3728 23.1141 16.1202 23.1141H14.494Z" fill="white"/>
<path d="M22.8777 29.2293H20.62V27.5975C20.62 27.043 22.8777 27.043 22.8777 27.5975V29.2293Z" fill="white"/>
<path d="M22.8777 14.717V16.3488C22.8777 16.5389 21.8831 16.8082 21.6462 16.7924C21.4094 16.7766 20.6042 16.5231 20.6042 16.2379V14.7012H22.862L22.8777 14.717Z" fill="white"/>
<path d="M28.9721 20.8322V23.0977H27.3459C27.188 23.0977 26.9038 22.163 26.9038 21.9571C26.9038 21.7036 27.188 20.8164 27.4406 20.8164H28.9721V20.8322Z" fill="white"/>
</g>
<defs>
<clipPath id="clip0_4076_866">
<rect width="266.544" height="43.6306" fill="white"/>
</clipPath>
</defs>
</svg>
