<svg width="100%" height="100%" viewBox="0 0 307 29" fill="none" xmlns="http://www.w3.org/2000/svg">
<path d="M37.2162 17.6555C37.2162 17.576 37.2041 17.4964 37.2041 17.4169C37.2041 17.374 37.2162 17.3251 37.2162 17.2822C37.2162 15.5198 37.2223 13.7636 37.2102 12.0012C37.2102 11.4627 37.1677 10.9241 37.101 10.3918C36.7854 8.02353 35.7963 5.9674 34.17 4.24172C32.0219 1.97752 29.3761 0.771991 26.2632 0.704677C24.2971 0.661841 22.3249 0.692438 20.3588 0.704677C20.0675 0.704677 19.7762 0.747513 19.485 0.78423C18.1742 0.961694 16.9606 1.40841 15.7955 1.99588C19.1452 3.81947 21.4207 7.39323 21.4207 11.5055C21.4207 15.887 18.8296 19.6566 15.1098 21.3456C16.6815 22.3247 18.4412 22.8754 20.4013 22.9366C22.5798 23.01 24.7643 22.9611 26.9428 22.9611C27.1006 22.9611 27.2583 22.9427 27.4222 22.9366C27.4586 22.9611 27.5011 22.9794 27.5314 23.0039C28.4962 23.8423 29.4672 24.6684 30.4199 25.519C31.9612 26.902 33.721 27.771 35.7902 27.9546C36.2575 27.9974 36.7247 28.0035 37.2162 28.028V27.7159C37.2162 24.3624 37.2162 21.0029 37.2162 17.6494V17.6555Z" fill="#1FC0DA"/>
<g style="mix-blend-mode:multiply">
<path d="M9.94578 14.0212C9.9033 13.8132 9.86689 13.599 9.83048 13.3909C9.788 12.6077 9.68484 11.8244 9.72125 11.0411C9.81835 8.77076 10.5769 6.73299 11.9847 4.95835C12.3791 4.46268 12.8646 4.03431 13.3076 3.57536C13.3258 3.56312 13.35 3.55088 13.3682 3.53864V3.52028H13.3864C13.9144 3.15923 14.4241 2.76759 14.9763 2.44938C15.2433 2.29027 15.5225 2.14953 15.7955 2.0149C14.2845 1.17042 12.5551 0.699219 10.7164 0.699219C4.79388 0.699219 0 5.5397 0 11.5062C0 17.4726 4.79388 22.3131 10.7164 22.3131C12.2881 22.3131 13.7748 21.9643 15.1159 21.3523C14.3513 20.875 13.6231 20.3059 12.9556 19.6205C11.4143 18.0601 10.407 16.1875 9.95185 14.0212H9.94578Z" fill="#B7BEE1"/>
</g>
<g style="mix-blend-mode:multiply">
<path d="M21.4268 11.5057C21.4268 7.39344 19.1512 3.81969 15.8016 1.99609C15.5285 2.13684 15.2494 2.27759 14.9824 2.43057C14.4302 2.74878 13.9204 3.14655 13.3925 3.50148H13.3743V3.51983C13.3743 3.51983 13.3379 3.54431 13.3136 3.55655C12.8706 4.01551 12.3852 4.44387 11.9908 4.93955C10.5829 6.71418 9.8244 8.75808 9.72731 11.0223C9.69697 11.8056 9.80013 12.5888 9.83654 13.3721C9.87295 13.5802 9.90936 13.7944 9.95184 14.0024C10.407 16.1687 11.4143 18.0413 12.9556 19.6017C13.6292 20.281 14.3513 20.8562 15.1159 21.3335C18.8357 19.6384 21.4268 15.875 21.4268 11.4935V11.5057Z" fill="#9FD2CD"/>
</g>
<path d="M21.4268 11.5057C21.4268 7.39344 19.1512 3.81969 15.8016 1.99609C15.5285 2.13684 15.2494 2.27759 14.9824 2.43057C14.4302 2.74878 13.9204 3.14655 13.3925 3.50148H13.3743V3.51983C13.3743 3.51983 13.3379 3.54431 13.3136 3.55655C12.8706 4.01551 12.3852 4.44387 11.9908 4.93955C10.5829 6.71418 9.8244 8.75808 9.72731 11.0223C9.69697 11.8056 9.80013 12.5888 9.83654 13.3721C9.87295 13.5802 9.90936 13.7944 9.95184 14.0024C10.407 16.1687 11.4143 18.0413 12.9556 19.6017C13.6292 20.281 14.3513 20.8562 15.1159 21.3335C18.8357 19.6384 21.4268 15.875 21.4268 11.4935V11.5057Z" fill="#0A404A"/>
<path d="M62.1383 26.6259L47.338 4.54085V3.85547H49.7592L64.5596 25.9344V26.6198H62.1383V26.6259ZM47.338 26.6259V3.86159H49.7592V26.6259H47.338ZM62.1383 26.6259V3.86159H64.5596V26.6259H62.1383Z" fill="#425092"/>
<path d="M82.843 10.3604V26.6197H80.4886V21.9016L81.1986 22.5197C80.9194 23.4315 80.4643 24.2209 79.8271 24.894C79.19 25.5672 78.4375 26.0873 77.5516 26.4545C76.6717 26.8217 75.7372 27.0114 74.7481 27.0114C73.589 27.0114 72.5635 26.7605 71.6715 26.2648C70.7795 25.7691 70.0755 25.0287 69.5597 24.0557C69.044 23.0827 68.783 21.8649 68.783 20.4146V10.3604H71.2042V19.8577C71.2042 21.0694 71.3863 22.024 71.7504 22.7216C72.1145 23.4192 72.6121 23.9027 73.231 24.1842C73.85 24.4657 74.5417 24.6064 75.2942 24.6064C76.1984 24.6064 77.0358 24.3922 77.8125 23.9578C78.5892 23.5233 79.2143 22.893 79.6997 22.073C80.1852 21.2468 80.4279 20.2738 80.4279 19.1479V10.3665H82.8491L82.843 10.3604Z" fill="#425092"/>
<path d="M91.4963 26.6265L84.9487 10.6242V10.3672H87.467L93.0133 24.1543V26.6265H91.4963ZM92.3337 26.6265V24.1543L97.88 10.3672H100.398V10.6242L93.8507 26.6265H92.3337Z" fill="#425092"/>
<path d="M107.104 27.0122C106.005 27.0122 105.022 26.7919 104.155 26.3635C103.287 25.929 102.601 25.3354 102.11 24.5766C101.612 23.8178 101.369 22.9427 101.369 21.9453C101.369 20.5378 101.867 19.3935 102.868 18.5123C103.869 17.6311 105.247 17.1293 107.013 17.0008L113.202 16.5479V18.8244L107.559 19.2466C106.309 19.3323 105.38 19.6015 104.767 20.0605C104.155 20.5133 103.845 21.1436 103.845 21.9453C103.845 22.7469 104.161 23.3711 104.798 23.879C105.435 24.3869 106.254 24.644 107.268 24.644C108.281 24.644 109.197 24.4114 110.023 23.9463C110.848 23.4813 111.503 22.851 111.989 22.0615C112.474 21.2721 112.717 20.3848 112.717 19.4118V16.7805C112.717 15.477 112.322 14.4122 111.54 13.58C110.757 12.7478 109.695 12.3255 108.366 12.3255C107.353 12.3255 106.485 12.5703 105.757 13.0598C105.022 13.5494 104.513 14.2593 104.209 15.1894H103.857L101.727 14.4061C102.243 12.9558 103.08 11.8482 104.246 11.0894C105.405 10.3306 106.794 9.95117 108.408 9.95117C110.581 9.95117 112.243 10.606 113.409 11.9216C114.574 13.2373 115.15 15.0915 115.15 17.4964V26.6328H112.796V21.9147L113.633 22.5327C113.378 23.4017 112.923 24.1728 112.28 24.8581C111.637 25.5435 110.872 26.0698 109.992 26.4492C109.112 26.8286 108.154 27.0183 107.122 27.0183L107.104 27.0122Z" fill="#425092"/>
<path d="M116.971 12.735V10.3606H126.904V12.735H116.971ZM124.325 26.6261C122.99 26.6261 121.898 26.1916 121.036 25.3227C120.175 24.4537 119.744 23.2849 119.744 21.8101V5.94238H122.165V21.651C122.165 22.6056 122.365 23.2788 122.76 23.6643C123.154 24.0559 123.816 24.2518 124.744 24.2518H126.74L126.904 24.6067V26.62H124.325V26.6261Z" fill="#425092"/>
<path d="M130.776 7.17825C130.278 7.17825 129.859 7.0069 129.52 6.65809C129.174 6.30929 129.004 5.88704 129.004 5.39137C129.004 4.89569 129.174 4.47345 129.52 4.12464C129.866 3.77584 130.284 3.60449 130.776 3.60449C131.267 3.60449 131.692 3.77584 132.032 4.12464C132.378 4.47345 132.548 4.89569 132.548 5.39137C132.548 5.88704 132.378 6.31541 132.032 6.65809C131.686 7.0069 131.267 7.17825 130.776 7.17825ZM129.55 26.6258V10.3604H131.971V26.6197H129.55V26.6258Z" fill="#425092"/>
<path d="M142.76 27.0121C141.213 27.0121 139.842 26.6572 138.646 25.9412C137.451 25.2252 136.516 24.2278 135.843 22.9488C135.163 21.6698 134.829 20.1828 134.829 18.4939C134.829 16.8049 135.169 15.3179 135.843 14.0389C136.522 12.7599 137.457 11.7625 138.646 11.0465C139.842 10.3305 141.213 9.97559 142.76 9.97559C144.308 9.97559 145.703 10.3305 146.887 11.0465C148.07 11.7625 148.999 12.7599 149.678 14.0389C150.358 15.3179 150.692 16.8049 150.692 18.4939C150.692 20.1828 150.352 21.6698 149.678 22.9488C149.005 24.2278 148.07 25.2252 146.887 25.9412C145.703 26.6572 144.326 27.0121 142.76 27.0121ZM142.76 24.6378C143.834 24.6378 144.787 24.3808 145.612 23.8728C146.438 23.3649 147.093 22.649 147.566 21.7249C148.04 20.807 148.276 19.7239 148.276 18.4877C148.276 17.2516 148.04 16.144 147.566 15.2383C147.093 14.3326 146.444 13.6167 145.612 13.1087C144.787 12.6008 143.834 12.3438 142.76 12.3438C141.686 12.3438 140.734 12.6008 139.908 13.1087C139.083 13.6167 138.428 14.3265 137.954 15.2383C137.481 16.1501 137.244 17.2332 137.244 18.4877C137.244 19.7422 137.481 20.8009 137.954 21.7249C138.428 22.649 139.077 23.3588 139.908 23.8728C140.734 24.3808 141.686 24.6378 142.76 24.6378Z" fill="#425092"/>
<path d="M153.635 26.6266V10.3611H155.989V15.0792L155.279 14.4611C155.558 13.5493 156.019 12.7599 156.669 12.0868C157.312 11.4137 158.07 10.8935 158.944 10.5263C159.818 10.1592 160.747 9.97559 161.736 9.97559C162.895 9.97559 163.926 10.2265 164.83 10.7222C165.735 11.2178 166.439 11.9583 166.942 12.9313C167.446 13.9043 167.701 15.122 167.701 16.5723V26.6205H165.28V17.1231C165.28 15.887 165.097 14.9262 164.733 14.247C164.369 13.5677 163.878 13.0843 163.265 12.7966C162.652 12.5152 161.96 12.3744 161.183 12.3744C160.304 12.3744 159.466 12.5886 158.683 13.0231C157.901 13.4575 157.263 14.0817 156.778 14.8956C156.293 15.7095 156.05 16.6886 156.05 17.8391V26.6205H153.629L153.635 26.6266Z" fill="#425092"/>
<path d="M182.859 27.1464C180.687 27.1464 178.787 26.6508 177.149 25.6533C175.517 24.6558 174.254 23.2606 173.362 21.4737C172.47 19.6868 172.021 17.6123 172.021 15.2441C172.021 12.8759 172.464 10.7769 173.362 9.00228C174.254 7.22764 175.517 5.83853 177.149 4.84106C178.781 3.84359 180.687 3.3418 182.859 3.3418C185.032 3.3418 187.064 3.92926 188.763 5.09808C190.463 6.26689 191.652 7.8763 192.344 9.91408L188.509 11.0523L188.157 10.985C187.75 9.90184 187.064 9.05124 186.112 8.43317C185.153 7.81511 184.073 7.50302 182.871 7.50302C181.536 7.50302 180.389 7.82123 179.418 8.46377C178.454 9.10631 177.701 10.0059 177.179 11.1624C176.657 12.319 176.39 13.6837 176.39 15.2441C176.39 16.8046 176.651 18.1692 177.179 19.3258C177.707 20.4824 178.454 21.388 179.418 22.0245C180.383 22.667 181.536 22.9852 182.871 22.9852C184.073 22.9852 185.153 22.6792 186.112 22.0612C187.07 21.4431 187.75 20.5925 188.157 19.5094L188.509 19.4421L192.344 20.5803C191.658 22.618 190.463 24.2213 188.763 25.3963C187.064 26.5651 185.098 27.1525 182.859 27.1525V27.1464Z" fill="#1FC0DA"/>
<path d="M202.599 27.1468C200.924 27.1468 199.443 26.7735 198.163 26.0269C196.883 25.2804 195.875 24.2462 195.147 22.9182C194.413 21.5964 194.049 20.0788 194.049 18.3654C194.049 16.6519 194.413 15.1343 195.147 13.8125C195.875 12.4907 196.883 11.4565 198.163 10.7038C199.443 9.95727 200.918 9.58398 202.599 9.58398C204.28 9.58398 205.754 9.95727 207.035 10.7038C208.315 11.4504 209.316 12.4907 210.051 13.8125C210.779 15.1343 211.149 16.6519 211.149 18.3654C211.149 20.0788 210.785 21.5964 210.051 22.9182C209.322 24.24 208.315 25.2742 207.035 26.0269C205.754 26.7735 204.28 27.1468 202.599 27.1468ZM202.599 23.2732C203.461 23.2732 204.201 23.0712 204.826 22.6735C205.451 22.2757 205.93 21.7005 206.276 20.9661C206.622 20.2318 206.792 19.3629 206.792 18.3654C206.792 17.3679 206.622 16.499 206.276 15.7646C205.93 15.0242 205.451 14.4612 204.826 14.0573C204.201 13.6534 203.461 13.4576 202.599 13.4576C201.737 13.4576 200.997 13.6595 200.372 14.0573C199.747 14.4612 199.261 15.0303 198.922 15.7646C198.576 16.5051 198.406 17.3679 198.406 18.3654C198.406 19.3629 198.576 20.2318 198.922 20.9661C199.267 21.7066 199.747 22.2757 200.372 22.6735C200.997 23.0774 201.737 23.2732 202.599 23.2732Z" fill="#1FC0DA"/>
<path d="M213.771 26.6266V10.1041H217.8V14.0389L216.738 14.2654C217.126 13.2924 217.642 12.454 218.285 11.7625C218.928 11.071 219.681 10.5325 220.543 10.1531C221.404 9.77369 222.339 9.58398 223.346 9.58398C224.505 9.58398 225.567 9.841 226.52 10.3489C227.479 10.8568 228.237 11.6156 228.808 12.607C229.378 13.6045 229.663 14.8528 229.663 16.346V26.6205H225.312V17.7412C225.312 16.811 225.191 16.0278 224.942 15.3975C224.693 14.7672 224.335 14.2898 223.862 13.9655C223.389 13.6412 222.818 13.476 222.151 13.476C221.635 13.476 221.064 13.6167 220.439 13.8982C219.814 14.1797 219.274 14.6815 218.813 15.4097C218.352 16.1379 218.121 17.1966 218.121 18.5796V26.6144H213.771V26.6266Z" fill="#1FC0DA"/>
<path d="M233.007 26.6266V10.1041H237.036V14.0389L235.974 14.2654C236.362 13.2924 236.878 12.454 237.521 11.7625C238.165 11.071 238.917 10.5325 239.779 10.1531C240.641 9.77369 241.575 9.58398 242.582 9.58398C243.741 9.58398 244.803 9.841 245.756 10.3489C246.715 10.8568 247.473 11.6156 248.044 12.607C248.614 13.6045 248.899 14.8528 248.899 16.346V26.6205H244.548V17.7412C244.548 16.811 244.427 16.0278 244.178 15.3975C243.929 14.7672 243.571 14.2898 243.098 13.9655C242.625 13.6412 242.054 13.476 241.387 13.476C240.871 13.476 240.301 13.6167 239.676 13.8982C239.051 14.1797 238.511 14.6815 238.049 15.4097C237.588 16.1379 237.358 17.1966 237.358 18.5796V26.6144H233.007V26.6266Z" fill="#1FC0DA"/>
<path d="M260.089 27.1468C258.372 27.1468 256.861 26.7796 255.556 26.0392C254.258 25.3048 253.238 24.2706 252.51 22.9488C251.776 21.627 251.412 20.0972 251.412 18.3654C251.412 16.6336 251.77 15.1037 252.492 13.7819C253.214 12.4601 254.209 11.4321 255.477 10.6916C256.746 9.95115 258.22 9.58398 259.895 9.58398C261.57 9.58398 262.99 9.96339 264.215 10.7222C265.441 11.481 266.4 12.5397 267.086 13.9104C267.771 15.2812 268.117 16.8722 268.117 18.6897V19.473L267.632 19.9626H253.347V16.4806H266.345L263.924 17.3618C263.924 16.5601 263.748 15.8564 263.39 15.2445C263.038 14.6386 262.559 14.1674 261.97 13.8309C261.382 13.4943 260.72 13.3291 259.986 13.3291C259.167 13.3291 258.439 13.5065 257.795 13.8676C257.152 14.2286 256.648 14.7121 256.296 15.3301C255.944 15.9482 255.762 16.6581 255.762 17.4597V19.1854C255.762 19.9442 255.963 20.6418 256.357 21.2844C256.758 21.9269 257.28 22.4409 257.935 22.8265C258.59 23.2181 259.306 23.4139 260.077 23.4139C260.763 23.4139 261.43 23.2059 262.073 22.7959C262.717 22.3859 263.22 21.829 263.59 21.1375H263.979L267.462 22.6C266.794 24.0748 265.824 25.2008 264.543 25.9841C263.263 26.7674 261.776 27.1529 260.077 27.1529L260.089 27.1468Z" fill="#1FC0DA"/>
<path d="M278.591 27.1468C276.874 27.1468 275.363 26.7796 274.058 26.0392C272.759 25.3048 271.74 24.2706 271.012 22.9488C270.278 21.627 269.913 20.0972 269.913 18.3654C269.913 16.6336 270.278 15.1037 271.012 13.7819C271.74 12.4601 272.759 11.4321 274.058 10.6916C275.357 9.95115 276.868 9.58398 278.591 9.58398C279.926 9.58398 281.109 9.79205 282.153 10.2204C283.197 10.6426 284.077 11.2913 284.799 12.1542C285.521 13.0231 286.073 14.1063 286.461 15.4036L282.881 16.4133H282.493C282.214 15.5015 281.704 14.7794 280.964 14.2531C280.223 13.7207 279.434 13.4576 278.591 13.4576C277.711 13.4576 276.947 13.6595 276.303 14.0573C275.66 14.4612 275.156 15.0242 274.804 15.7463C274.452 16.4745 274.27 17.3434 274.27 18.3654C274.27 19.3873 274.446 20.2318 274.804 20.9661C275.156 21.7066 275.66 22.2757 276.303 22.6735C276.947 23.0712 277.711 23.2732 278.591 23.2732C279.216 23.2732 279.799 23.1569 280.351 22.9182C280.897 22.6796 281.376 22.3369 281.789 21.8963C282.196 21.4496 282.487 20.9233 282.657 20.3175H283.045L286.625 21.3272C286.237 22.6306 285.679 23.7138 284.95 24.5766C284.216 25.4456 283.324 26.0881 282.274 26.5104C281.219 26.9326 279.993 27.1407 278.597 27.1407L278.591 27.1468Z" fill="#1FC0DA"/>
<path d="M287.875 13.9711V10.0975H299.29V13.9711H287.875ZM296.195 26.6261C294.496 26.6261 293.149 26.0876 292.147 25.0167C291.146 23.9458 290.649 22.4832 290.649 20.6413V5.94238H294.999V20.1578C294.999 20.9595 295.23 21.5959 295.691 22.061C296.152 22.5261 296.783 22.7586 297.578 22.7586H299.126L299.29 23.1135V26.6261H296.195Z" fill="#1FC0DA"/>
<path d="M301.411 8.82303V6.45406H300.635V5.8916H302.862V6.45406H302.101V8.82303H301.416H301.411ZM303.144 8.82303V5.8916H303.809L304.972 7.32633H304.655L305.783 5.8916H306.448V8.82303H305.763V6.59229L306.045 6.64948L304.841 8.09375H304.75L303.592 6.64948L303.829 6.59229V8.82303H303.144Z" fill="#1FC0DA"/>
</svg>
